<?xml version="1.0" encoding="UTF-8"?>
<svg id="Camada_2" data-name="Camada 2" xmlns="http://www.w3.org/2000/svg" xmlns:xlink="http://www.w3.org/1999/xlink" viewBox="0 0 346.7 211.64">
  <defs>
    <style>
      .cls-1 {
        fill: url(#linear-gradient-38);
      }

      .cls-1, .cls-2, .cls-3, .cls-4, .cls-5, .cls-6, .cls-7, .cls-8, .cls-9, .cls-10, .cls-11, .cls-12, .cls-13, .cls-14, .cls-15, .cls-16, .cls-17, .cls-18, .cls-19, .cls-20, .cls-21, .cls-22, .cls-23, .cls-24, .cls-25, .cls-26, .cls-27, .cls-28, .cls-29, .cls-30, .cls-31, .cls-32, .cls-33, .cls-34, .cls-35, .cls-36, .cls-37, .cls-38, .cls-39, .cls-40, .cls-41, .cls-42, .cls-43, .cls-44 {
        stroke-width: 0px;
      }

      .cls-2 {
        fill: url(#linear-gradient-12);
      }

      .cls-3 {
        fill: url(#linear-gradient-17);
      }

      .cls-4 {
        fill: url(#linear-gradient-19);
      }

      .cls-5 {
        fill: url(#linear-gradient-33);
      }

      .cls-6 {
        fill: url(#linear-gradient);
      }

      .cls-45 {
        opacity: .51;
      }

      .cls-7 {
        fill: url(#linear-gradient-21);
      }

      .cls-8 {
        fill: url(#linear-gradient-6);
      }

      .cls-46 {
        clip-path: url(#clippath-2);
      }

      .cls-9 {
        fill: url(#linear-gradient-15);
      }

      .cls-10 {
        fill: url(#linear-gradient-11);
      }

      .cls-11 {
        fill: url(#linear-gradient-5);
      }

      .cls-47 {
        filter: url(#outer-glow-1);
      }

      .cls-12 {
        fill: none;
      }

      .cls-13 {
        fill: url(#linear-gradient-31);
      }

      .cls-14 {
        fill: url(#linear-gradient-34);
      }

      .cls-48 {
        clip-path: url(#clippath-1);
      }

      .cls-15 {
        fill: url(#linear-gradient-13);
      }

      .cls-16 {
        fill: url(#linear-gradient-23);
      }

      .cls-17 {
        fill: url(#linear-gradient-25);
      }

      .cls-18 {
        fill: url(#linear-gradient-16);
      }

      .cls-19 {
        fill: url(#linear-gradient-22);
      }

      .cls-20 {
        fill: url(#linear-gradient-35);
      }

      .cls-21 {
        fill: url(#linear-gradient-32);
      }

      .cls-22 {
        fill: url(#linear-gradient-20);
      }

      .cls-23 {
        fill: url(#linear-gradient-14);
      }

      .cls-24 {
        fill: url(#linear-gradient-2);
      }

      .cls-25 {
        fill: url(#linear-gradient-7);
      }

      .cls-26 {
        fill: url(#radial-gradient-2);
      }

      .cls-27 {
        fill: url(#linear-gradient-39);
      }

      .cls-28 {
        fill: url(#linear-gradient-3);
      }

      .cls-49 {
        clip-path: url(#clippath);
      }

      .cls-29 {
        fill: url(#linear-gradient-9);
      }

      .cls-30 {
        fill: url(#linear-gradient-27);
      }

      .cls-31 {
        fill: url(#radial-gradient);
      }

      .cls-50 {
        clip-path: url(#clippath-3);
      }

      .cls-32 {
        fill: url(#linear-gradient-36);
      }

      .cls-33 {
        fill: url(#linear-gradient-8);
      }

      .cls-34 {
        fill: url(#linear-gradient-24);
      }

      .cls-35 {
        fill: url(#linear-gradient-26);
      }

      .cls-36 {
        fill: url(#linear-gradient-18);
      }

      .cls-37 {
        fill: url(#linear-gradient-30);
      }

      .cls-38 {
        fill: url(#linear-gradient-29);
      }

      .cls-39 {
        fill: url(#linear-gradient-28);
      }

      .cls-40 {
        fill: url(#linear-gradient-10);
      }

      .cls-41 {
        fill: url(#radial-gradient-3);
      }

      .cls-42 {
        fill: url(#linear-gradient-4);
      }

      .cls-43 {
        fill: url(#linear-gradient-37);
      }

      .cls-44 {
        fill: #f2f2f2;
        opacity: .77;
      }
    </style>
    <clipPath id="clippath">
      <rect class="cls-12" width="346.7" height="211.64"/>
    </clipPath>
    <linearGradient id="linear-gradient" x1="171.52" y1="173.39" x2="171.52" y2="-7.87" gradientUnits="userSpaceOnUse">
      <stop offset="0" stop-color="#975ae7"/>
      <stop offset=".44" stop-color="#662d91"/>
      <stop offset=".97" stop-color="#1b1464"/>
    </linearGradient>
    <linearGradient id="linear-gradient-2" x1="349.21" y1="45.58" x2="350.1" y2="-4.71" gradientUnits="userSpaceOnUse">
      <stop offset=".24" stop-color="#01f0ff" stop-opacity="0"/>
      <stop offset="1" stop-color="#fff"/>
    </linearGradient>
    <linearGradient id="linear-gradient-3" x1="174.07" y1="60.12" x2="170.82" y2="3.37" gradientUnits="userSpaceOnUse">
      <stop offset=".09" stop-color="#01f0ff" stop-opacity="0"/>
      <stop offset=".97" stop-color="#fff"/>
    </linearGradient>
    <linearGradient id="linear-gradient-4" x1="286.61" y1="62.35" x2="284.49" y2="25.36" gradientUnits="userSpaceOnUse">
      <stop offset=".01" stop-color="#01f0ff" stop-opacity="0"/>
      <stop offset=".97" stop-color="#fff"/>
    </linearGradient>
    <linearGradient id="linear-gradient-5" x1="2.31" y1="76.2" x2=".19" y2="39.21" gradientTransform="translate(160.98) rotate(-180) scale(1 -1)" xlink:href="#linear-gradient-4"/>
    <linearGradient id="linear-gradient-6" x1="138.99" y1="76.2" x2="136.87" y2="39.21" gradientTransform="translate(160.98) rotate(-180) scale(1 -1)" xlink:href="#linear-gradient-4"/>
    <linearGradient id="linear-gradient-7" x1="154.63" y1="245.9" x2="154.63" y2="79.97" gradientUnits="userSpaceOnUse">
      <stop offset=".31" stop-color="#662d91" stop-opacity=".9"/>
      <stop offset=".97" stop-color="#1b1464"/>
    </linearGradient>
    <linearGradient id="linear-gradient-8" x1="283.85" y1="107.23" x2="283.95" y2="96.33" gradientTransform="translate(343.44 -194.74) rotate(81.91)" gradientUnits="userSpaceOnUse">
      <stop offset=".1" stop-color="#ffeb69"/>
      <stop offset=".21" stop-color="#f8e270"/>
      <stop offset=".4" stop-color="#e7ca85"/>
      <stop offset=".63" stop-color="#cca4a6"/>
      <stop offset=".9" stop-color="#a66fd4"/>
      <stop offset="1" stop-color="#975ae7"/>
    </linearGradient>
    <linearGradient id="linear-gradient-9" x1="275.59" y1="107.06" x2="275.69" y2="96.26" gradientTransform="matrix(1,0,0,1,0,0)" xlink:href="#linear-gradient-8"/>
    <linearGradient id="linear-gradient-10" x1="279.78" y1="99.98" x2="279.78" y2="108.21" gradientTransform="matrix(1,0,0,1,0,0)" xlink:href="#linear-gradient-8"/>
    <radialGradient id="radial-gradient" cx="269.94" cy="56.03" fx="269.94" fy="56.03" r="36.2" gradientTransform="translate(230.57 -214.03) rotate(73.23) scale(1 .72)" gradientUnits="userSpaceOnUse">
      <stop offset="0" stop-color="#ffeb69"/>
      <stop offset=".13" stop-color="#f8e270"/>
      <stop offset=".33" stop-color="#e7ca85"/>
      <stop offset=".59" stop-color="#cca4a6"/>
      <stop offset=".89" stop-color="#a66fd4"/>
      <stop offset="1" stop-color="#975ae7"/>
    </radialGradient>
    <clipPath id="clippath-1">
      <path class="cls-12" d="M279.74,51.53c-9.67.13-17.46,8-17.46,17.7,0,3.27.89,6.33,2.43,8.95,3.58,7.06,10.08,18.22,10.08,18.22h9.92s6.5-11.16,10.08-18.22c1.54-2.63,2.43-5.68,2.43-8.95,0-9.7-7.8-17.57-17.46-17.7Z"/>
    </clipPath>
    <linearGradient id="linear-gradient-11" x1="270.81" y1="97.36" x2="270.81" y2="48.93" gradientUnits="userSpaceOnUse">
      <stop offset="0" stop-color="#ffeb69" stop-opacity="0"/>
      <stop offset=".09" stop-color="#fbe56d" stop-opacity=".04"/>
      <stop offset=".24" stop-color="#f0d67a" stop-opacity=".14"/>
      <stop offset=".42" stop-color="#dfbe8f" stop-opacity=".31"/>
      <stop offset=".64" stop-color="#c69cad" stop-opacity=".54"/>
      <stop offset=".87" stop-color="#a872d1" stop-opacity=".83"/>
      <stop offset="1" stop-color="#975ae7"/>
    </linearGradient>
    <linearGradient id="linear-gradient-12" x1="288.72" y1="97.33" x2="288.72" y2="48.81" xlink:href="#linear-gradient-11"/>
    <linearGradient id="linear-gradient-13" x1="284.86" y1="97.08" x2="284.86" y2="48.77" xlink:href="#linear-gradient-11"/>
    <linearGradient id="linear-gradient-14" x1="274.66" y1="97.08" x2="274.66" y2="48.77" xlink:href="#linear-gradient-11"/>
    <linearGradient id="linear-gradient-15" x1="279.75" y1="96.41" x2="279.75" y2="50.07" xlink:href="#linear-gradient-11"/>
    <linearGradient id="linear-gradient-16" x1="137.47" y1="106.53" x2="137.51" y2="101.86" gradientTransform="translate(220.76 -47.07) rotate(81.91)" xlink:href="#linear-gradient-8"/>
    <linearGradient id="linear-gradient-17" x1="133.92" y1="106.46" x2="133.97" y2="101.82" gradientTransform="matrix(1,0,0,1,0,0)" xlink:href="#linear-gradient-8"/>
    <linearGradient id="linear-gradient-18" x1="135.72" y1="103.42" x2="135.72" y2="106.95" gradientTransform="matrix(1,0,0,1,0,0)" xlink:href="#linear-gradient-8"/>
    <radialGradient id="radial-gradient-2" cx="131.5" cy="84.57" fx="131.5" fy="84.57" r="15.53" gradientTransform="translate(151.68 -58.85) rotate(73.23) scale(1 .72)" xlink:href="#radial-gradient"/>
    <clipPath id="clippath-2">
      <path class="cls-12" d="M135.71,82.64c-4.15.06-7.49,3.43-7.49,7.59,0,1.4.38,2.71,1.04,3.84,1.53,3.03,4.32,7.82,4.32,7.82h4.25s2.79-4.79,4.32-7.82c.66-1.13,1.04-2.44,1.04-3.84,0-4.16-3.34-7.53-7.49-7.59Z"/>
    </clipPath>
    <linearGradient id="linear-gradient-19" x1="131.88" y1="102.29" x2="131.88" y2="81.53" xlink:href="#linear-gradient-11"/>
    <linearGradient id="linear-gradient-20" x1="139.56" y1="102.28" x2="139.56" y2="81.47" xlink:href="#linear-gradient-11"/>
    <linearGradient id="linear-gradient-21" x1="137.9" y1="102.18" x2="137.9" y2="81.46" xlink:href="#linear-gradient-11"/>
    <linearGradient id="linear-gradient-22" x1="133.53" y1="102.18" x2="133.53" y2="81.46" xlink:href="#linear-gradient-11"/>
    <linearGradient id="linear-gradient-23" x1="135.71" y1="101.89" x2="135.71" y2="82.02" xlink:href="#linear-gradient-11"/>
    <linearGradient id="linear-gradient-24" x1="216.24" y1="145.45" x2="213.51" y2="98.02" gradientTransform="translate(246.88) rotate(-180) scale(1 -1)" xlink:href="#linear-gradient-4"/>
    <linearGradient id="linear-gradient-25" x1="10.15" y1="133.17" x2="6.9" y2="76.56" gradientTransform="translate(267.98)" xlink:href="#linear-gradient-4"/>
    <linearGradient id="linear-gradient-26" x1="-18.36" y1="98.85" x2="103.53" y2="98.85" gradientUnits="userSpaceOnUse">
      <stop offset=".01" stop-color="#01f0ff" stop-opacity="0"/>
      <stop offset=".98" stop-color="#fff"/>
    </linearGradient>
    <linearGradient id="linear-gradient-27" x1="164.45" y1="143.96" x2="286.34" y2="143.96" gradientTransform="translate(494.77) rotate(-180) scale(1 -1)" xlink:href="#linear-gradient-4"/>
    <linearGradient id="linear-gradient-28" x1="206.69" y1="160.5" x2="328.58" y2="160.5" gradientTransform="translate(-103.7)" xlink:href="#linear-gradient-4"/>
    <linearGradient id="linear-gradient-29" x1="313.4" y1="234.22" x2="259.57" y2="123.02" xlink:href="#linear-gradient-7"/>
    <linearGradient id="linear-gradient-30" x1="2.6" y1="38.94" x2="5.26" y2="-3.82" gradientUnits="userSpaceOnUse">
      <stop offset=".12" stop-color="#01f0ff" stop-opacity="0"/>
      <stop offset=".97" stop-color="#fff"/>
    </linearGradient>
    <linearGradient id="linear-gradient-31" x1="94.16" y1="232.12" x2="93.19" y2="132.1" xlink:href="#linear-gradient-7"/>
    <linearGradient id="linear-gradient-32" x1="112.06" y1="95.48" x2="112.21" y2="79.53" gradientTransform="translate(181.13 -37.47) rotate(81.91)" xlink:href="#linear-gradient-8"/>
    <linearGradient id="linear-gradient-33" x1="99.96" y1="95.22" x2="100.11" y2="79.42" gradientTransform="matrix(1,0,0,1,0,0)" xlink:href="#linear-gradient-8"/>
    <linearGradient id="linear-gradient-34" x1="106.1" y1="84.86" x2="106.1" y2="96.91" gradientTransform="matrix(1,0,0,1,0,0)" xlink:href="#linear-gradient-8"/>
    <radialGradient id="radial-gradient-3" cx="91.7" cy="20.55" fx="91.7" fy="20.55" r="52.98" gradientTransform="translate(79.37 -71.5) rotate(73.23) scale(1 .72)" xlink:href="#radial-gradient"/>
    <clipPath id="clippath-3">
      <path class="cls-12" d="M106.05,13.96c-14.15.19-25.56,11.71-25.56,25.9,0,4.78,1.3,9.26,3.56,13.1,5.23,10.34,14.75,26.67,14.75,26.67h14.51s9.51-16.33,14.75-26.67c2.26-3.84,3.56-8.32,3.56-13.1,0-14.19-11.41-25.71-25.56-25.9Z"/>
    </clipPath>
    <linearGradient id="linear-gradient-35" x1="92.98" y1="81.02" x2="92.98" y2="10.16" xlink:href="#linear-gradient-11"/>
    <linearGradient id="linear-gradient-36" x1="119.19" y1="80.98" x2="119.19" y2="9.97" xlink:href="#linear-gradient-11"/>
    <linearGradient id="linear-gradient-37" x1="113.54" y1="80.62" x2="113.54" y2="9.93" xlink:href="#linear-gradient-11"/>
    <linearGradient id="linear-gradient-38" x1="98.61" y1="80.62" x2="98.61" y2="9.93" xlink:href="#linear-gradient-11"/>
    <linearGradient id="linear-gradient-39" x1="106.05" y1="79.64" x2="106.05" y2="11.83" xlink:href="#linear-gradient-11"/>
    <filter id="outer-glow-1" filterUnits="userSpaceOnUse">
      <feOffset dx="0" dy="0"/>
      <feGaussianBlur result="blur" stdDeviation="1"/>
      <feFlood flood-color="#fff" flood-opacity=".9"/>
      <feComposite in2="blur" operator="in"/>
      <feComposite in="SourceGraphic"/>
    </filter>
  </defs>
  <g id="Objects">
    <g class="cls-49">
      <rect class="cls-6" x="-3.9" width="350.84" height="211.64"/>
      <path class="cls-24" d="M252.89,36.68h1.37c4.5,0,9.01.04,13.51.04h107.7c3,0,6.09.2,9.09,0,5.81-.4,11.57-.63,17.41-.22.02-.34.03-.69.05-1.03h44.84c.93-3.93,1.85-8,1.14-11.97-.71-3.98-3.17-7.86-6.97-9.24-3.8-1.38-8.78.61-9.73,4.54-.16.65-.18,1.42.29,1.9.74.76,2.05.23,2.79-.52,1.85-1.89,2.28-4.92,1.38-7.41s-2.99-4.43-5.39-5.56c-5.4-2.52-13.13-.51-15.41,5.39-.3.77-.49,1.6-.32,2.41.16.8.75,1.56,1.55,1.73.87.19,1.77-.36,2.25-1.12.47-.75.6-1.67.66-2.56.42-6.85-3.13-13.68-8.63-17.77-5.51-4.09-12.77-5.54-19.55-4.48-9.35,1.46-17.79,7.29-23.1,15.04-1.07,1.56-1.96,3.22-2.63,4.99-1.59,4.17-1.89,8.91-.33,13.09.33.89,1.09,1.9,1.98,1.61.76-.25.92-1.24.91-2.04-.04-2.2-.41-4.38-1.1-6.47-.58-1.76-1.54-3.1-2.58-4.6-5.43-7.84-15.33-11.15-24.31-7.73-8.6,3.28-13.97,11.95-15.25,20.8-.1.66-.16,1.37.13,1.97.3.6,1.09.99,1.66.63.53-.34.56-1.08.5-1.7-.53-5.82-4.02-11.23-9.27-13.87-7.77-3.92-16.51-.93-22.8,4.33-2.77,2.32-5.09,5.19-6.7,8.43-.38.76-.73,1.6-.63,2.44s.82,1.68,1.67,1.59c.8-.08,1.33-.88,1.57-1.65,2.15-6.76-6.13-10.33-11.54-10.41-6.62-.1-15.02,4.6-15.76,11.79-.14,1.38.19,3.02,1.43,3.65,1.13.58,2.63-.03,3.26-1.13.63-1.1.49-2.53-.11-3.65-.79-1.46-2.16-2.53-3.75-2.93-1.39-.35-2.88-.27-4.27.07-2.58.63-4.94,2.15-6.59,4.24-1.65,2.09-2.64,4.74-2.65,7.4h2.23Z"/>
      <path class="cls-28" d="M76.78,52.85h1.37c4.5,0,9.01.04,13.51.04h107.7c3,0,6.09.2,9.09,0,5.81-.4,11.57-.63,17.41-.22.02-.34.03-.69.05-1.03h44.84c.93-3.93,1.85-8,1.14-11.97-.71-3.98-3.17-7.86-6.97-9.24-3.8-1.38-8.78.61-9.73,4.54-.16.65-.18,1.42.29,1.9.74.76,2.05.23,2.79-.52,1.85-1.89,2.28-4.92,1.38-7.41-.91-2.49-2.99-4.43-5.39-5.56-5.4-2.52-13.13-.51-15.41,5.39-.3.77-.49,1.6-.32,2.41.16.8.75,1.56,1.55,1.73.87.19,1.77-.36,2.25-1.12.47-.75.6-1.67.66-2.56.42-6.85-3.13-13.68-8.63-17.77-5.51-4.09-12.77-5.54-19.55-4.48-9.35,1.46-17.79,7.29-23.1,15.04-1.07,1.56-1.96,3.22-2.63,4.99-1.59,4.17-1.89,8.91-.33,13.09.33.89,1.09,1.9,1.98,1.61.76-.25.92-1.24.91-2.04-.04-2.2-.41-4.38-1.1-6.47-.58-1.76-1.54-3.1-2.58-4.6-5.43-7.84-15.33-11.15-24.31-7.73-8.6,3.28-13.97,11.95-15.25,20.8-.1.66-.16,1.37.13,1.97s1.09.99,1.66.63c.53-.34.56-1.08.5-1.7-.53-5.82-4.02-11.23-9.27-13.87-7.77-3.92-16.51-.93-22.8,4.33-2.77,2.32-5.09,5.19-6.7,8.43-.38.76-.73,1.6-.63,2.44.1.85.82,1.68,1.67,1.59.8-.08,1.33-.88,1.57-1.65,2.15-6.76-6.13-10.33-11.54-10.41-6.62-.1-15.02,4.6-15.76,11.79-.14,1.38.19,3.02,1.43,3.65,1.13.58,2.63-.03,3.26-1.13.63-1.1.49-2.53-.11-3.65-.79-1.46-2.16-2.53-3.75-2.93-1.39-.35-2.88-.27-4.27.07-2.58.63-4.94,2.15-6.59,4.24-1.65,2.09-2.64,4.74-2.65,7.4h2.23Z"/>
      <path class="cls-42" d="M219.23,57.15c1.44-.81,4,.01,5.6.01h69.62c7.94,0,15.82-.3,23.73-.3h30.37c3.21,0,4.4-3.72,4.44-6.36.06-3.92-2.32-7.07-5.93-8.56-5.62-2.33-14.74.9-15.13,7.78-.03.48.09,1.09.56,1.19.47.11.84-.41,1.02-.86,1.2-3.09.18-6.85-2.28-9.08-2.46-2.23-6.14-2.92-9.31-1.95-2.96.91-5.64,3.6-5.41,6.69.05.71.28,1.45.82,1.91.54.46,1.45.53,1.93,0,.24-.26.34-.61.42-.95,1.23-5.18-.8-10.91-4.8-14.42s-9.74-4.81-14.94-3.68c-5.2,1.13-9.79,4.55-12.67,9.02-2.29,3.56-3.54,8.03-2.34,12.09.09.32.23.66.54.8.63.27,1.16-.64,1.09-1.32-.07-.68-.21-1.2-.05-1.87.14-.57.28-.76.12-1.4-.29-1.21-.95-2.35-1.73-3.31-1.54-1.9-3.74-3.28-6.06-4.03-3.87-1.24-8.29-.73-11.6,1.7-1.01.74-1.55,1.6-2.34,2.52-1.72,1.99-2.87,4.29-2.97,6.96-.03.83.17,1.85.95,2.12.46.16.98-.01,1.34-.35.35-.33.55-.8.66-1.27.53-2.28-.92-4.65-2.89-5.93-5.26-3.42-12.61-2.8-17.32,1.29-1.4,1.22-2.51,2.9-2.66,4.75-.07.77.23,1.77,1,1.83.54.05,1.02-.46,1.1-1,.08-.54-.13-1.08-.4-1.56-1.36-2.42-4.39-3.76-7.09-3.15-2.7.61-4.86,3.13-5.05,5.89-.02.28-.02.57.11.82.12.25.41.44.68.37.51-.12.46-.89.2-1.34-1.03-1.77-3.35-2.47-5.36-2.1-2.01.37-3.75,1.61-5.27,2.98-.68.62-1.35,1.29-1.84,2.08-.37.6-.41,1.46-.85,1.97Z"/>
      <path class="cls-11" d="M226.04,71c-1.44-.81-4,.01-5.6.01h-69.62c-7.94,0-15.82-.3-23.73-.3h-30.37c-3.21,0-4.4-3.72-4.44-6.36-.06-3.92,2.32-7.07,5.93-8.56,5.62-2.33,14.74.9,15.13,7.78.03.48-.09,1.09-.56,1.19-.47.11-.84-.41-1.02-.86-1.2-3.09-.18-6.85,2.28-9.08,2.46-2.23,6.14-2.92,9.31-1.95,2.96.91,5.64,3.6,5.41,6.69-.05.71-.28,1.45-.82,1.91-.54.46-1.45.53-1.93,0-.24-.26-.34-.61-.42-.95-1.23-5.18.8-10.91,4.8-14.42s9.74-4.81,14.94-3.68c5.2,1.13,9.79,4.55,12.67,9.02,2.29,3.56,3.54,8.03,2.34,12.09-.09.32-.23.66-.54.8-.63.27-1.16-.64-1.09-1.32.07-.68.21-1.2.05-1.87-.14-.57-.28-.76-.12-1.4.29-1.21.95-2.35,1.73-3.31,1.54-1.9,3.74-3.28,6.06-4.03,3.87-1.24,8.29-.73,11.6,1.7,1.01.74,1.55,1.6,2.34,2.52,1.72,1.99,2.87,4.29,2.97,6.96.03.83-.17,1.85-.95,2.12-.46.16-.98-.01-1.34-.35-.35-.33-.55-.8-.66-1.27-.53-2.28.92-4.65,2.89-5.93,5.26-3.42,12.61-2.8,17.32,1.29,1.4,1.22,2.51,2.9,2.66,4.75.07.77-.23,1.77-1,1.83-.54.05-1.02-.46-1.1-1-.09-.54.13-1.08.4-1.56,1.36-2.42,4.39-3.76,7.09-3.15,2.7.61,4.86,3.13,5.05,5.89.02.28.02.57-.11.82-.12.25-.41.44-.68.37-.51-.12-.46-.89-.2-1.34,1.03-1.77,3.35-2.47,5.36-2.1,2.01.37,3.75,1.61,5.27,2.98.68.62,1.35,1.29,1.84,2.08.37.6.41,1.46.85,1.97Z"/>
      <path class="cls-8" d="M89.36,71c-1.44-.81-4,.01-5.6.01H14.15c-7.94,0-15.82-.3-23.73-.3h-30.37c-3.21,0-4.4-3.72-4.44-6.36-.06-3.92,2.32-7.07,5.93-8.56,5.62-2.33,14.74.9,15.13,7.78.03.48-.09,1.09-.56,1.19-.47.11-.84-.41-1.02-.86-1.2-3.09-.18-6.85,2.28-9.08,2.46-2.23,6.14-2.92,9.31-1.95,2.96.91,5.64,3.6,5.41,6.69-.05.71-.28,1.45-.82,1.91-.54.46-1.45.53-1.93,0-.24-.26-.34-.61-.42-.95-1.23-5.18.8-10.91,4.8-14.42s9.74-4.81,14.94-3.68c5.2,1.13,9.79,4.55,12.67,9.02,2.29,3.56,3.54,8.03,2.34,12.09-.09.32-.23.66-.54.8-.63.27-1.16-.64-1.09-1.32.07-.68.21-1.2.05-1.87-.14-.57-.28-.76-.12-1.4.29-1.21.95-2.35,1.73-3.31,1.54-1.9,3.74-3.28,6.06-4.03,3.87-1.24,8.29-.73,11.6,1.7,1.01.74,1.55,1.6,2.34,2.52,1.72,1.99,2.87,4.29,2.97,6.96.03.83-.17,1.85-.95,2.12-.46.16-.98-.01-1.34-.35-.35-.33-.55-.8-.66-1.27-.53-2.28.92-4.65,2.89-5.93,5.26-3.42,12.61-2.8,17.32,1.29,1.4,1.22,2.51,2.9,2.66,4.75.07.77-.23,1.77-1,1.83-.54.05-1.02-.46-1.1-1-.08-.54.13-1.08.4-1.56,1.36-2.42,4.39-3.76,7.09-3.15,2.7.61,4.86,3.13,5.05,5.89.02.28.02.57-.11.82-.12.25-.41.44-.68.37-.51-.12-.46-.89-.2-1.34,1.03-1.77,3.35-2.47,5.36-2.1s3.75,1.61,5.27,2.98c.68.62,1.35,1.29,1.84,2.08.37.6.41,1.46.85,1.97Z"/>
      <path class="cls-25" d="M-2,198.55l74.45-111.92,42.31,73.32,46.76-75.32s15.04,19.72,15.71,19.94c.66.22,42.98-68.01,42.98-68.01l61.36,120.95,29.68,54.12H0l-2-13.09Z"/>
      <g>
        <g>
          <rect class="cls-33" x="279.55" y="100.23" width="8.73" height=".51" transform="translate(144.46 367.43) rotate(-81.91)"/>
          <polygon class="cls-29" points="275.95 104.47 274.8 96.32 275.3 96.24 276.5 104.7 275.95 104.47"/>
          <path class="cls-40" d="M281.96,108.5h-4.35c-.6,0-1.12-.44-1.21-1.04l-.53-3.54h7.82l-.53,3.54c-.09.6-.6,1.04-1.21,1.04Z"/>
        </g>
        <path class="cls-31" d="M279.74,51.53c-9.67.13-17.46,8-17.46,17.7,0,3.27.89,6.33,2.43,8.95,3.58,7.06,10.08,18.22,10.08,18.22h9.92s6.5-11.16,10.08-18.22c1.54-2.63,2.43-5.68,2.43-8.95,0-9.7-7.8-17.57-17.46-17.7Z"/>
        <g class="cls-48">
          <g>
            <path class="cls-10" d="M276.14,50.34c-1.64,1.48-3.18,2.97-4.39,4.68-1.24,1.68-2.17,3.53-2.8,5.45-1.23,3.84-1.36,8-.69,12.01.33,1.96.92,3.97,1.62,5.96.68,1.99,1.47,3.98,2.26,5.97l5.06,12c-2.92-3.31-5.4-6.95-7.54-10.81-1.1-1.91-2.06-3.92-2.91-5.99-.86-2.07-1.56-4.23-1.97-6.55l-.14-.87-.07-.86-.13-1.72c-.04-.57.02-1.16.02-1.73.03-.58,0-1.16.1-1.73.24-2.31.86-4.6,1.85-6.71.97-2.12,2.39-4.02,4.06-5.56,1.69-1.53,3.63-2.72,5.67-3.53Z"/>
            <path class="cls-2" d="M282.52,50.22c2.06.8,4.03,1.93,5.78,3.42,1.73,1.49,3.23,3.33,4.3,5.42.3.51.53,1.05.75,1.59.22.55.47,1.09.6,1.66l.47,1.7.28,1.74c.04.29.1.58.12.87l.04.87.07,1.75c-.09,1.16-.12,2.31-.3,3.47-.36,2.35-1.06,4.52-1.88,6.62-.82,2.1-1.76,4.12-2.83,6.07-2.09,3.91-4.52,7.62-7.39,11l4.89-12.15c.77-2.02,1.54-4.02,2.18-6.04.66-2.01,1.26-4.04,1.54-6.02.17-.99.2-2.04.31-3.05v-1.52c.01-.51,0-1.02-.07-1.52-.09-2.04-.61-3.99-1.28-5.91-.72-1.89-1.73-3.72-3.05-5.36-1.28-1.69-2.87-3.14-4.54-4.61Z"/>
            <path class="cls-15" d="M280.64,50.11c1.8,1.1,3.23,2.73,4.49,4.46,1.22,1.75,2.21,3.69,2.92,5.73.74,2.03,1.2,4.17,1.41,6.33.08,1.09.16,2.15.1,3.28,0,.57-.05,1.12-.13,1.65-.07.54-.11,1.09-.21,1.61-.72,4.22-1.99,8.21-3.54,12.08-1.53,3.87-3.32,7.62-5.55,11.16.86-4.09,1.91-8.06,2.93-12.01.99-3.96,2.01-7.9,2.68-11.79.67-3.79.47-7.7-.32-11.55-.43-1.91-.99-3.82-1.79-5.65-.78-1.85-1.72-3.64-2.99-5.3Z"/>
            <path class="cls-23" d="M278.87,50.11c-1.27,1.66-2.23,3.44-3.01,5.29-.8,1.83-1.36,3.73-1.78,5.64-.78,3.85-.98,7.77-.31,11.56.66,3.89,1.68,7.83,2.68,11.79,1.02,3.96,2.07,7.93,2.93,12.02-2.23-3.54-4.02-7.3-5.55-11.16-1.55-3.86-2.81-7.86-3.54-12.08-.1-.52-.14-1.08-.21-1.61-.08-.53-.12-1.08-.13-1.65-.06-1.13.02-2.2.1-3.28.2-2.16.66-4.3,1.39-6.34.71-2.04,1.69-3.98,2.92-5.74,1.26-1.72,2.7-3.35,4.51-4.44Z"/>
            <path class="cls-9" d="M279.75,50.07c.73,3.86,1.11,7.72,1.37,11.58.28,3.86.39,7.72.39,11.58,0,3.86-.11,7.72-.39,11.58-.26,3.86-.64,7.72-1.38,11.58-.73-3.86-1.12-7.72-1.38-11.58-.28-3.86-.38-7.72-.39-11.58,0-3.86.11-7.72.39-11.58.26-3.86.64-7.72,1.37-11.58Z"/>
          </g>
        </g>
      </g>
      <g class="cls-45">
        <g>
          <rect class="cls-18" x="135.62" y="103.53" width="3.75" height=".22" transform="translate(15.55 225.19) rotate(-81.91)"/>
          <polygon class="cls-3" points="134.08 105.34 133.59 101.85 133.8 101.82 134.31 105.44 134.08 105.34"/>
          <path class="cls-36" d="M136.66,107.07h-1.87c-.26,0-.48-.19-.52-.45l-.23-1.52h3.35l-.23,1.52c-.04.26-.26.45-.52.45Z"/>
        </g>
        <path class="cls-26" d="M135.71,82.64c-4.15.06-7.49,3.43-7.49,7.59,0,1.4.38,2.71,1.04,3.84,1.53,3.03,4.32,7.82,4.32,7.82h4.25s2.79-4.79,4.32-7.82c.66-1.13,1.04-2.44,1.04-3.84,0-4.16-3.34-7.53-7.49-7.59Z"/>
        <g class="cls-46">
          <g>
            <path class="cls-4" d="M134.16,82.13c-1.43,1.23-2.56,2.68-3.08,4.34-.53,1.65-.59,3.43-.3,5.15.13.84.39,1.7.69,2.55.28.86.63,1.7.97,2.56l2.17,5.15c-1.25-1.42-2.31-2.98-3.23-4.63-.91-1.66-1.72-3.39-2.09-5.38-.31-1.95-.16-4.02.7-5.84.83-1.84,2.42-3.22,4.17-3.9Z"/>
            <path class="cls-22" d="M136.9,82.08c1.76.67,3.4,1.98,4.32,3.79.95,1.79,1.16,3.91.87,5.86-.35,2-1.13,3.76-2.02,5.44-.9,1.68-1.94,3.27-3.17,4.72l2.1-5.21c.33-.87.67-1.72.94-2.59.29-.86.55-1.73.66-2.58.07-.43.09-.87.14-1.31-.02-.43.02-.88-.03-1.31-.02-.88-.27-1.71-.55-2.53-.6-1.65-1.8-3.06-3.25-4.28Z"/>
            <path class="cls-7" d="M136.09,82.03c1.52.99,2.56,2.64,3.18,4.37.62,1.74.81,3.67.5,5.52-.32,1.81-.85,3.52-1.52,5.18-.66,1.66-1.42,3.27-2.38,4.79.37-1.75.82-3.46,1.26-5.15.43-1.7.88-3.38,1.15-5.06.3-1.63.2-3.31-.14-4.95-.37-1.63-.98-3.26-2.05-4.69Z"/>
            <path class="cls-19" d="M135.33,82.03c-1.07,1.43-1.69,3.05-2.05,4.69-.34,1.65-.43,3.33-.13,4.96.27,1.67.72,3.36,1.15,5.06.44,1.7.89,3.4,1.26,5.15-.96-1.52-1.72-3.13-2.38-4.79-.66-1.66-1.19-3.37-1.52-5.18-.3-1.86-.12-3.78.5-5.52.61-1.73,1.66-3.38,3.18-4.36Z"/>
            <path class="cls-16" d="M135.71,82.02c.31,1.66.48,3.31.59,4.97.12,1.66.15,3.31.17,4.97-.01,1.66-.05,3.31-.17,4.97-.11,1.66-.28,3.31-.59,4.97-.31-1.66-.48-3.31-.59-4.97-.12-1.66-.15-3.31-.17-4.97.02-1.66.05-3.31.17-4.97.11-1.66.27-3.31.59-4.97Z"/>
          </g>
        </g>
      </g>
      <path class="cls-34" d="M90.71,139.78h-.82c-1.04-.04-2.18.11-3.24.11H-23.3c-3.93-4.43-8.03-8.87-10.03-14.44-.62-1.74-.95-3.5-1.18-5.32-.2-1.56.32-3.19.78-4.68.99-3.2,2.58-6.23,4.8-8.75,3.14-3.56,7.59-6.03,12.31-6.39,5.93-.45,11.77,2.44,15.9,6.72,4.12,4.28,6.7,9.83,8.51,15.49.68,2.12,1.27,4.45.75,6.67-.21.91-.65,1.78-1.34,2.4-.65.58-1.6.91-2.39.54-.91-.42-1.23-1.59-1.12-2.59.67-5.71,4.97-10.93,10.2-13.11,6.95-2.9,16.46-.62,20.52,5.99,0,.01.01.02.02.03,1.76,2.87,2.77,6.12,3.6,9.38.18.73.36,1.5.14,2.22-.22.72-.99,1.32-1.7,1.09-.66-.22-.95-1-1.01-1.7-.19-2.08.78-4.11,2.04-5.77,6.52-8.53,21.35-7.88,24.91,3.23.42,1.3,1.08,3.39.33,4.64-.31.53-1.01.88-1.56.6-.72-.37-.65-1.41-.4-2.18.67-2.06,1.92-4,3.77-5.13,1.85-1.13,4.33-1.34,6.17-.19s2.74,3.74,1.7,5.65c-.15.28-.42.58-.74.52-.47-.08-.47-.76-.3-1.2.82-2.14,2.77-3.81,5.01-4.28,2.24-.47,4.7.27,6.31,1.89.67.68,1.21,1.51,1.43,2.44.22.93.11,1.95-.41,2.75-.22.34-.65.67-1.01.48-.37-.19-.34-.74-.19-1.13.56-1.43,2.04-2.41,3.57-2.52,2.26-.17,4.92,1.46,4.99,3.91,0,.26-.03.54-.2.75-.16.21-.48.31-.7.17-.21-.14-.26-.45-.16-.68.1-.24.3-.41.51-.56.93-.67,2.11-.99,3.25-.89,1.14.1,2.24.61,3.05,1.43.62.63,1.11,1.61.71,2.39h-6.83Z"/>
      <path class="cls-17" d="M198.75,125.61c27.43.03,54.87.06,82.3.06h59.71c2.49,0,4.88.54,7.32.52,3.65-.03,7.43-.79,11.06-1.17,1.09-.12,2.23-.25,3.16-.84,1.93-1.22,2.25-3.87,2.33-6.15.23-6.7.09-13.51-1.8-19.95-1.88-6.43-5.69-12.52-11.43-15.98-5.71-3.44-12.9-3.97-19.34-2.24s-12.17,5.58-16.91,10.27c-5.02,4.97-9.16,11.22-10.03,18.23-.12,1-.17,2.06.26,2.97.44.91,1.51,1.59,2.46,1.26,1.17-.4,1.48-1.92,1.42-3.16-.49-10.48-10.39-15.6-19.93-15.11-11.83.61-21.57,9.94-21.83,22.04-.03,1.34.5,3.13,1.85,3.06,1.43-.07,1.69-2.11,1.33-3.5-2.09-8.05-10.2-14.1-18.52-13.81-8.31.29-15.98,6.9-17.5,15.08-.27,1.47.1,3.54,1.6,3.58.9.02,1.62-.86,1.72-1.76.1-.9-.28-1.77-.7-2.57-1.3-2.47-3.24-4.71-5.81-5.78-2.57-1.07-5.83-.75-7.78,1.24-1.94,2-1.99,5.71.24,7.39-.41-4-4.04-7.42-8.05-7.59-4.02-.17-7.92,2.94-8.66,6.89-.15.78-.16,1.65.32,2.27.48.63,1.6.76,2,.08.45-.77-.33-1.67-1.07-2.17-2.1-1.4-4.84-2.25-7.15-1.23-2.31,1.02-3.45,4.48-1.59,6.18-.82-2.24-3.38-3.7-5.72-3.25-2.34.44-4.2,2.73-4.14,5.11,2.96,0,5.93,0,8.89,0Z"/>
      <path class="cls-35" d="M-18.36,112.49l121.89-.21c-2.34-3.12-7.15-4.09-10.44-1.99-.88-2.3-2.81-4.18-5.15-4.97s-5.01-.73-7.11.56c-.07-1.53-.48-3.09-1.42-4.31s-2.44-2.05-3.97-1.96c-1.53.09-3.22.79-3.48,2.3.19-1.13-1.16-2.86-1.88-3.59-.95-.98-2.11-1.61-3.43-1.97-4.79-1.3-10.26,1.73-12.31,6.15-.18-4.78-1.9-9.61-5.28-13-3.13-3.14-7.68-4.66-12.08-4.23-4.74.46-8.69,3.27-11.5,7-1.62,2.15-2.88,4.57-3.79,7.1-.73,2.04-1.25,4.21-1,6.36.08.66.23,1.32.63,1.85.39.53,1.07.89,1.71.76.71-.15,1.19-.84,1.32-1.55.44-2.39-1.23-5.07-3.02-6.51-1.97-1.59-4.55-2.43-7.09-2.24-2.04.15-4.02.98-5.6,2.27-1.51,1.23-3.13,3.17-3.68,5.06-.47,1.61-.05,3.59,1.37,4.49.6.38,1.51.48,1.93-.08.41-.55.1-1.34-.23-1.94-.17-.31-.34-.62-.52-.93-.73-1.28-1.51-2.53-2.3-3.77-4.14-6.41-10.65-10.93-18.16-12.6-1.17-.26-2.33-.58-3.48-.85.66,4.95.27,10.17.51,15.17.14,2.86-.26,5.8-2.46,7.63Z"/>
      <path class="cls-30" d="M330.32,157.61l-121.89-.21c2.34-3.12,7.15-4.09,10.44-1.99.88-2.3,2.81-4.18,5.15-4.97s5.01-.73,7.11.56c.07-1.53.48-3.09,1.42-4.31s2.44-2.05,3.97-1.96c1.53.09,3.22.79,3.48,2.3-.19-1.13,1.16-2.86,1.88-3.59.95-.98,2.11-1.61,3.43-1.97,4.79-1.3,10.26,1.73,12.31,6.15.18-4.78,1.9-9.61,5.28-13,3.13-3.14,7.68-4.66,12.08-4.23,4.74.46,8.69,3.27,11.5,7,1.62,2.15,2.88,4.57,3.79,7.1.73,2.04,1.25,4.21,1,6.36-.08.66-.23,1.32-.62,1.85-.39.53-1.07.89-1.71.76-.71-.15-1.19-.84-1.32-1.55-.44-2.39,1.23-5.07,3.02-6.51,1.97-1.59,4.55-2.43,7.09-2.24,2.04.15,4.02.98,5.6,2.27,1.51,1.23,3.13,3.17,3.68,5.06.47,1.61.05,3.59-1.37,4.49-.6.38-1.51.48-1.93-.08-.41-.55-.1-1.34.23-1.94.17-.31.34-.62.52-.93.73-1.28,1.51-2.53,2.3-3.77,4.14-6.41,10.65-10.93,18.16-12.6,1.17-.26,2.33-.58,3.48-.85-.66,4.95-.27,10.17-.51,15.17-.14,2.86.26,5.8,2.46,7.63Z"/>
      <path class="cls-39" d="M102.98,174.15l121.89-.21c-2.34-3.12-7.15-4.09-10.44-1.99-.88-2.3-2.81-4.18-5.15-4.97s-5.01-.73-7.11.56c-.07-1.53-.48-3.09-1.42-4.31-.94-1.22-2.44-2.05-3.97-1.96-1.53.09-3.22.79-3.48,2.3.19-1.13-1.16-2.86-1.88-3.59-.95-.98-2.11-1.61-3.43-1.97-4.79-1.3-10.26,1.73-12.31,6.15-.18-4.78-1.9-9.61-5.28-13-3.13-3.14-7.68-4.66-12.08-4.23-4.74.46-8.69,3.27-11.5,7-1.62,2.15-2.88,4.57-3.79,7.11-.73,2.04-1.25,4.21-1,6.36.08.65.23,1.32.62,1.85.39.53,1.07.89,1.71.76.71-.15,1.19-.84,1.32-1.55.44-2.39-1.23-5.07-3.02-6.51-1.97-1.59-4.55-2.43-7.09-2.24-2.04.15-4.02.98-5.6,2.27-1.51,1.23-3.13,3.17-3.68,5.06-.47,1.61-.05,3.59,1.37,4.49.6.38,1.51.48,1.93-.08.41-.55.1-1.34-.23-1.94-.17-.31-.34-.62-.52-.93-.73-1.28-1.51-2.53-2.3-3.77-4.14-6.41-10.65-10.93-18.16-12.6-1.17-.26-2.33-.58-3.48-.85.66,4.95.27,10.17.51,15.17.14,2.86-.26,5.8-2.46,7.63Z"/>
      <polygon class="cls-38" points="228.85 211.64 289.99 107.45 320.06 142.9 332.3 121.19 365.08 189.42 365.08 211.64 228.85 211.64"/>
      <path class="cls-37" d="M-57.91,32.16l121.89-.21c-2.34-3.12-7.15-4.09-10.44-1.99-.88-2.3-2.81-4.18-5.15-4.97-2.33-.8-5.01-.73-7.11.56-.07-1.53-.48-3.09-1.42-4.31s-2.44-2.05-3.97-1.96c-1.53.09-3.22.79-3.48,2.3.19-1.13-1.16-2.86-1.88-3.59-.95-.98-2.11-1.61-3.43-1.97-4.79-1.3-10.26,1.73-12.31,6.15-.18-4.78-1.9-9.61-5.28-13C6.39,6.02,1.84,4.51-2.56,4.94c-4.74.46-8.69,3.27-11.5,7-1.62,2.15-2.88,4.57-3.79,7.1-.73,2.04-1.25,4.21-1,6.36.08.66.23,1.32.63,1.85.39.53,1.07.89,1.71.76.71-.15,1.19-.84,1.32-1.55.44-2.39-1.23-5.07-3.02-6.51-1.97-1.59-4.55-2.43-7.09-2.24-2.04.15-4.02.98-5.6,2.27-1.51,1.23-3.13,3.17-3.68,5.06-.47,1.61-.05,3.59,1.37,4.49.6.38,1.51.48,1.93-.08.41-.55.1-1.34-.23-1.94-.17-.31-.34-.62-.52-.93-.73-1.28-1.51-2.53-2.3-3.77-4.14-6.41-10.65-10.93-18.16-12.6-1.17-.26-2.33-.58-3.48-.85.66,4.95.27,10.17.51,15.17.14,2.86-.26,5.8-2.46,7.63Z"/>
      <polygon class="cls-13" points="191.19 211.64 122.08 99.26 83.53 161.06 68.61 133.15 44.76 163.06 21.06 128.94 -3.75 161.73 -2 212.9 191.19 211.64"/>
      <g>
        <g>
          <rect class="cls-21" x="105.76" y="85.24" width="12.78" height=".75" transform="translate(11.61 184.6) rotate(-81.91)"/>
          <polygon class="cls-5" points="100.5 91.43 98.81 79.5 99.55 79.4 101.3 91.77 100.5 91.43"/>
          <path class="cls-14" d="M109.28,97.34h-6.37c-.89,0-1.64-.65-1.77-1.52l-.77-5.17h11.45l-.77,5.17c-.13.88-.88,1.52-1.77,1.52Z"/>
        </g>
        <path class="cls-41" d="M106.05,13.96c-14.15.19-25.56,11.71-25.56,25.9,0,4.78,1.3,9.26,3.56,13.1,5.23,10.34,14.75,26.67,14.75,26.67h14.51s9.51-16.33,14.75-26.67c2.26-3.84,3.56-8.32,3.56-13.1,0-14.19-11.41-25.71-25.56-25.9Z"/>
        <g class="cls-50">
          <g>
            <path class="cls-20" d="M100.77,12.22c-2.4,2.17-4.65,4.35-6.42,6.85-1.82,2.45-3.17,5.17-4.08,7.98-1.84,5.61-2,11.7-1.03,17.57.48,2.87,1.35,5.81,2.37,8.71,1,2.92,2.13,5.83,3.33,8.73,2.36,5.83,4.96,11.6,7.39,17.57-4.28-4.84-7.88-10.18-11.05-15.81-1.59-2.81-3-5.74-4.25-8.77-1.25-3.03-2.29-6.19-2.88-9.59l-.21-1.27-.1-1.26-.19-2.52c-.07-.84.02-1.69.03-2.54.05-.85,0-1.69.15-2.54l.36-2.53c.1-.84.39-1.66.59-2.49l.33-1.24c.13-.41.29-.81.44-1.21.33-.79.56-1.61.98-2.36,1.43-3.1,3.51-5.87,5.95-8.13,2.48-2.24,5.31-3.98,8.3-5.17Z"/>
            <path class="cls-32" d="M110.11,12.04c3.01,1.17,5.9,2.83,8.46,5,2.53,2.19,4.73,4.87,6.3,7.92.2.38.42.75.6,1.14l.49,1.19c.31.8.68,1.59.88,2.43l.69,2.49.41,2.54c.06.43.15.85.18,1.28l.05,1.28.1,2.57-.18,2.54c-.08.85-.08,1.69-.26,2.54-.16.84-.28,1.71-.49,2.53l-.63,2.45c-.52,1.58-1.01,3.18-1.63,4.7-1.2,3.07-2.59,6.03-4.13,8.89-3.09,5.71-6.63,11.15-10.83,16.09,2.34-6.04,4.87-11.89,7.15-17.79,1.15-2.94,2.26-5.88,3.21-8.84.96-2.94,1.84-5.91,2.26-8.8.17-.71.17-1.48.25-2.22l.2-2.24v-2.23s0-1.12,0-1.12c-.02-.37-.07-.74-.1-1.1l-.2-2.21c-.15-.72-.28-1.45-.42-2.17-.1-.74-.37-1.43-.56-2.14l-.3-1.07c-.11-.35-.27-.69-.4-1.04-1.05-2.78-2.52-5.45-4.44-7.86-1.87-2.47-4.2-4.59-6.64-6.75Z"/>
            <path class="cls-43" d="M107.37,11.88c2.64,1.61,4.73,4,6.57,6.52,1.82,2.55,3.22,5.4,4.29,8.38,1.05,2.98,1.75,6.11,2.04,9.27.12,1.59.24,3.15.15,4.8l-.05,1.23-.14,1.19c-.1.78-.16,1.59-.31,2.36-1.05,6.18-2.93,12.01-5.16,17.68-2.26,5.65-4.88,11.15-8.14,16.33,1.26-5.98,2.81-11.79,4.28-17.59,1.49-5.78,2.95-11.55,3.93-17.25.47-2.87.68-5.52.57-8.42-.08-2.85-.46-5.68-1.06-8.49-.61-2.8-1.46-5.58-2.6-8.27-1.14-2.7-2.52-5.32-4.37-7.75Z"/>
            <path class="cls-1" d="M104.77,11.88c-1.85,2.43-3.26,5.04-4.4,7.73-1.15,2.69-2,5.46-2.59,8.26-.59,2.81-.95,5.64-1.04,8.49-.11,2.9.09,5.56.57,8.42.98,5.69,2.44,11.47,3.93,17.25,1.47,5.8,3.01,11.61,4.28,17.59-3.26-5.18-5.88-10.68-8.14-16.33-2.24-5.66-4.11-11.5-5.16-17.68-.14-.77-.2-1.57-.31-2.36l-.14-1.19-.05-1.23c-.09-1.66.03-3.21.14-4.8.29-3.16.97-6.29,2.02-9.28,1.06-2.98,2.47-5.84,4.29-8.39,1.84-2.52,3.95-4.9,6.6-6.5Z"/>
            <path class="cls-27" d="M106.05,11.83c1.07,5.65,1.62,11.3,2.02,16.95.38,5.65.55,11.3.56,16.95,0,5.65-.17,11.3-.55,16.95-.4,5.65-.95,11.3-2.03,16.95-1.07-5.65-1.63-11.3-2.03-16.95-.38-5.65-.55-11.3-.55-16.95,0-5.65.18-11.3.56-16.95.4-5.65.95-11.3,2.02-16.95Z"/>
          </g>
        </g>
      </g>
      <g class="cls-47">
        <path class="cls-44" d="M89.66,87.98c-.64,0-.64.99,0,.99s.64-.99,0-.99Z"/>
        <path class="cls-44" d="M58.65,50.32c-.64,0-.64.99,0,.99s.64-.99,0-.99Z"/>
        <path class="cls-44" d="M72.09,20.05c-.64,0-.64.99,0,.99s.64-.99,0-.99Z"/>
        <path class="cls-44" d="M42.84,7.64c-.64,0-.64.99,0,.99s.64-.99,0-.99Z"/>
        <path class="cls-44" d="M15.97,80.89c-.64,0-.64.99,0,.99s.64-.99,0-.99Z"/>
        <path class="cls-44" d="M35.46,47.07c-.64,0-.64.99,0,.99s.64-.99,0-.99Z"/>
        <path class="cls-44" d="M149.17,81.63c-.64,0-.64.99,0,.99s.64-.99,0-.99Z"/>
        <path class="cls-44" d="M174.58,85.03c-.64,0-.64.99,0,.99s.64-.99,0-.99Z"/>
        <path class="cls-44" d="M154.05,17.68c-.64,0-.64.99,0,.99s.64-.99,0-.99Z"/>
        <path class="cls-44" d="M175.46,6.61c-.64,0-.64.99,0,.99s.64-.99,0-.99Z"/>
        <path class="cls-44" d="M253.73,9.41c-.64,0-.64.99,0,.99s.64-.99,0-.99Z"/>
        <path class="cls-44" d="M260.08,14.44c-.64,0-.64.99,0,.99s.64-.99,0-.99Z"/>
        <path class="cls-44" d="M267.47,7.2c-.64,0-.64.99,0,.99s.64-.99,0-.99Z"/>
        <path class="cls-44" d="M310,70.26c-.64,0-.64.99,0,.99s.64-.99,0-.99Z"/>
        <path class="cls-44" d="M304.24,83.7c-.64,0-.64.99,0,.99s.64-.99,0-.99Z"/>
        <path class="cls-44" d="M325.51,72.47c-.64,0-.64.99,0,.99s.64-.99,0-.99Z"/>
        <path class="cls-44" d="M253.29,66.27c-.64,0-.64.99,0,.99s.64-.99,0-.99Z"/>
        <path class="cls-44" d="M265.1,89.16c-.64,0-.64.99,0,.99s.64-.99,0-.99Z"/>
        <path class="cls-44" d="M256.54,84.14c-.64,0-.64.99,0,.99s.64-.99,0-.99Z"/>
        <path class="cls-44" d="M243.25,71.14c-.64,0-.64.99,0,.99s.64-.99,0-.99Z"/>
        <path class="cls-44" d="M144.3,95.51c-.64,0-.64.99,0,.99s.64-.99,0-.99Z"/>
        <path class="cls-44" d="M164.53,77.64c-.64,0-.64.99,0,.99s.64-.99,0-.99Z"/>
        <path class="cls-44" d="M129.83,75.43c-.64,0-.64.99,0,.99s.64-.99,0-.99Z"/>
        <path class="cls-44" d="M120.82,89.75c-.64,0-.64.99,0,.99s.64-.99,0-.99Z"/>
        <path class="cls-44" d="M73.86,75.57c-.64,0-.64.99,0,.99s.64-.99,0-.99Z"/>
        <path class="cls-44" d="M63.37,84.73c-.64,0-.64.99,0,.99s.64-.99,0-.99Z"/>
        <path class="cls-44" d="M39.01,76.61c-.64,0-.64.99,0,.99s.64-.99,0-.99Z"/>
        <path class="cls-44" d="M37.68,118.99c-.64,0-.64.99,0,.99s.64-.99,0-.99Z"/>
        <path class="cls-44" d="M13.01,90.49c-.64,0-.64.99,0,.99s.64-.99,0-.99Z"/>
        <path class="cls-44" d="M5.78,79.12c-.64,0-.64.99,0,.99s.64-.99,0-.99Z"/>
        <path class="cls-44" d="M46.24,41.9c-.64,0-.64.99,0,.99s.64-.99,0-.99Z"/>
        <path class="cls-44" d="M64.26,38.95c-.64,0-.64.99,0,.99s.64-.99,0-.99Z"/>
        <path class="cls-44" d="M56.73,16.21c-.64,0-.64.99,0,.99s.64-.99,0-.99Z"/>
        <path class="cls-44" d="M107.53,6.76c-.64,0-.64.99,0,.99s.64-.99,0-.99Z"/>
        <path class="cls-44" d="M183.14,13.84c-.64,0-.64.99,0,.99s.64-.99,0-.99Z"/>
        <path class="cls-44" d="M337.62,62.58c-.64,0-.64.99,0,.99s.64-.99,0-.99Z"/>
        <path class="cls-44" d="M336.3,67.46c-.02-.06-.05-.11-.1-.16-.04-.05-.1-.08-.16-.1-.06-.03-.12-.05-.19-.04-.04,0-.09.01-.13.02-.08.02-.16.07-.22.13-.03.03-.05.07-.08.1-.04.08-.07.16-.07.25v.3c0,.07.01.13.04.19.02.06.05.11.1.16.04.05.1.08.16.1.06.03.12.05.19.04.04,0,.09-.01.13-.02.08-.02.16-.07.22-.13.03-.03.05-.07.08-.1.04-.08.07-.16.07-.25v-.3c0-.07-.01-.13-.04-.19Z"/>
        <path class="cls-44" d="M306.75,64.65c-.64,0-.64.99,0,.99s.64-.99,0-.99Z"/>
        <path class="cls-44" d="M320.34,69.08c-.64,0-.64.99,0,.99s.64-.99,0-.99Z"/>
        <path class="cls-44" d="M154.62,77.15c-.04-.07-.1-.13-.18-.18-.1-.05-.2-.1-.3-.15-.06-.04-.12-.06-.18-.06-.07-.01-.13-.01-.2,0-.06.02-.12.05-.17.09-.05.03-.1.08-.13.14l-.05.12c-.02.09-.02.18,0,.26l.05.12c.04.07.1.13.18.18.1.05.2.1.3.15.06.04.12.06.18.06.07.01.13.01.2,0,.06-.02.12-.05.17-.09.05-.04.1-.08.13-.14.02-.04.03-.08.05-.12.02-.09.02-.18,0-.26-.02-.04-.03-.08-.05-.12Z"/>
        <path class="cls-44" d="M140.17,114.41c-.64,0-.64.99,0,.99s.64-.99,0-.99Z"/>
        <path class="cls-44" d="M103.26,119c-.02-.06-.05-.11-.1-.16-.04-.05-.1-.08-.16-.1-.06-.03-.12-.05-.19-.04-.04,0-.09.01-.13.02-.08.02-.16.07-.22.13-.03.03-.05.07-.08.1-.04.08-.07.16-.07.25v.15c0,.07.01.13.04.19.02.06.05.11.1.16.04.05.1.08.16.1.06.03.12.05.19.04.04,0,.09-.01.13-.02.08-.02.16-.07.22-.13.03-.03.05-.07.08-.1.04-.08.07-.16.07-.25v-.15c0-.07-.01-.13-.04-.19Z"/>
        <path class="cls-44" d="M107.09,106.44c-.64,0-.64.99,0,.99s.64-.99,0-.99Z"/>
        <path class="cls-44" d="M22.02,36.44c-.64,0-.64.99,0,.99s.64-.99,0-.99Z"/>
        <path class="cls-44" d="M24.83,40.87c-.64,0-.64.99,0,.99s.64-.99,0-.99Z"/>
        <path class="cls-44" d="M28.38,39.26c-.02-.06-.05-.11-.1-.16-.04-.05-.1-.08-.16-.1-.06-.03-.12-.05-.19-.04-.04,0-.09.01-.13.02-.08.02-.16.07-.22.13-.03.03-.05.07-.08.1-.04.08-.07.16-.07.25v.15c0,.07.01.13.04.19.02.06.05.11.1.16.04.05.1.08.16.1.06.03.12.05.19.04.04,0,.09-.01.13-.02.08-.02.16-.07.22-.13.03-.03.05-.07.08-.1.04-.08.07-.16.07-.25v-.15c0-.07-.01-.13-.04-.19Z"/>
        <path class="cls-44" d="M77.4,78.23c-.64,0-.64.99,0,.99s.64-.99,0-.99Z"/>
        <path class="cls-44" d="M91.58,90.79c-.64,0-.64.99,0,.99s.64-.99,0-.99Z"/>
        <path class="cls-44" d="M147.55,78.68c-.64,0-.64.99,0,.99s.64-.99,0-.99Z"/>
      </g>
    </g>
  </g>
</svg>